<?xml version="1.0" standalone="no"?>
<!DOCTYPE svg PUBLIC "-//W3C//DTD SVG 20010904//EN"
 "http://www.w3.org/TR/2001/REC-SVG-20010904/DTD/svg10.dtd">
<svg version="1.0" xmlns="http://www.w3.org/2000/svg"
 width="227.000000pt" height="59.000000pt" viewBox="0 0 227.000000 59.000000"
 preserveAspectRatio="xMidYMid meet">

<g transform="translate(0.000000,59.000000) scale(0.100000,-0.100000)"
fill="#000000" stroke="none">
<path d="M1119 533 c-12 -16 -12 -17 2 -6 12 10 18 10 29 0 12 -10 12 -9 1 6
-7 9 -15 17 -16 17 -1 0 -9 -8 -16 -17z"/>
<path d="M1060 500 c-7 -14 -7 -20 0 -20 5 0 10 7 10 16 0 9 5 12 12 8 7 -4 8
-3 4 4 -10 16 -14 15 -26 -8z"/>
<path d="M1197 500 c3 -11 9 -20 15 -20 5 0 4 9 -2 20 -6 11 -12 20 -14 20 -2
0 -2 -9 1 -20z"/>
<path d="M1104 497 c3 -9 1 -28 -4 -41 -7 -19 -5 -26 6 -30 8 -3 13 -10 10
-15 -4 -5 0 -11 6 -14 10 -3 10 -8 -2 -23 -14 -17 -13 -18 1 -7 12 10 18 10
29 0 10 -9 10 -7 0 7 -12 15 -12 20 -2 23 6 3 10 9 6 14 -3 5 3 12 13 16 19 7
33 22 33 37 0 6 -7 1 -15 -10 -14 -19 -14 -19 -16 1 -1 11 -2 29 -1 40 2 18 1
19 -9 3 -5 -10 -16 -18 -24 -18 -8 0 -19 8 -25 18 -11 16 -11 16 -6 -1z m56
-46 c0 -26 -23 -44 -38 -29 -22 22 -14 48 13 48 18 0 25 -5 25 -19z"/>
<path d="M1128 443 c7 -3 16 -2 19 1 4 3 -2 6 -13 5 -11 0 -14 -3 -6 -6z"/>
<path d="M1020 485 c0 -8 2 -15 4 -15 2 0 6 7 10 15 3 8 1 15 -4 15 -6 0 -10
-7 -10 -15z"/>
<path d="M1235 490 c3 -5 8 -10 11 -10 2 0 4 5 4 10 0 6 -5 10 -11 10 -5 0 -7
-4 -4 -10z"/>
<path d="M1011 434 c0 -11 3 -14 6 -6 3 7 2 16 -1 19 -3 4 -6 -2 -5 -13z"/>
<path d="M1251 434 c0 -11 3 -14 6 -6 3 7 2 16 -1 19 -3 4 -6 -2 -5 -13z"/>
<path d="M1050 391 c0 -5 9 -7 20 -4 11 3 20 7 20 9 0 2 -9 4 -20 4 -11 0 -20
-4 -20 -9z"/>
<path d="M1180 396 c0 -2 9 -6 20 -9 11 -3 20 -1 20 4 0 5 -9 9 -20 9 -11 0
-20 -2 -20 -4z"/>
<path d="M460 350 c0 -6 90 -10 250 -10 160 0 250 4 250 10 0 6 -90 10 -250
10 -160 0 -250 -4 -250 -10z"/>
<path d="M1310 350 c0 -6 90 -10 250 -10 160 0 250 4 250 10 0 6 -90 10 -250
10 -160 0 -250 -4 -250 -10z"/>
<path d="M933 203 c57 -5 57 -5 -3 -93 -22 -32 -40 -61 -40 -64 0 -4 26 -5 58
-4 56 2 56 2 10 5 -27 2 -48 6 -48 8 0 2 20 33 45 68 25 36 45 70 45 76 0 7
-21 10 -57 9 l-58 -2 48 -3z"/>
<path d="M1191 210 c-7 -13 -10 -80 -5 -127 5 -46 8 -53 27 -53 19 0 19 1 4
12 -12 10 -17 33 -20 93 -1 44 -4 78 -6 75z"/>
<path d="M1270 200 c0 -5 5 -10 10 -10 6 0 10 5 10 10 0 6 -4 10 -10 10 -5 0
-10 -4 -10 -10z"/>
<path d="M1350 200 c0 -5 5 -10 10 -10 6 0 10 5 10 10 0 6 -4 10 -10 10 -5 0
-10 -4 -10 -10z"/>
<path d="M1050 152 c0 -4 12 -8 28 -7 21 0 28 -5 30 -22 3 -20 -1 -23 -27 -23
-39 0 -59 -31 -35 -55 10 -10 23 -13 33 -9 9 4 23 7 31 8 11 0 15 12 15 46 0
25 -4 51 -8 58 -9 13 -67 17 -67 4z m60 -77 c0 -19 -32 -36 -49 -25 -8 4 -11
15 -8 24 8 20 57 22 57 1z"/>
<path d="M1270 100 c0 -33 4 -60 10 -60 6 0 10 27 10 60 0 33 -4 60 -10 60 -6
0 -10 -27 -10 -60z"/>
<path d="M1350 100 c0 -33 4 -60 10 -60 6 0 10 27 10 60 0 33 -4 60 -10 60 -6
0 -10 -27 -10 -60z"/>
</g>
</svg>
